<?xml version="1.0" encoding="utf-8"?>
<svg width="512" height="512" viewBox="0 0 512 512" xmlns="http://www.w3.org/2000/svg"
     xmlns:xlink="http://www.w3.org/1999/xlink">
    <defs>
      <svg xmlns="http://www.w3.org/2000/svg" width="2500" height="2500" viewBox="0 0 192.756 192.756"  id="svg-1"><g fill-rule="evenodd" clip-rule="evenodd"><path fill="#fff" d="M0 0h192.756v192.756H0V0z"/><path fill="#33348e" d="M96.396 16.925l-78.85 52.85 32.819 21.311L89.577 64.66 74.023 54.443l21.305-14.274 46.231 30.679-75.845 50.918 16.405 10.865 94.379-62.848-.213-.213-79.889-52.645zM175.027 16.947l-32.808 21.731 16.404 11.078 16.404-11.078V16.947zM17.005 175.832l32.809-21.73-16.404-11.079-16.405 11.079v21.73z"/><path fill="#33348e" d="M96.36 175.787l78.849-52.851-32.818-21.311-39.211 26.426 15.552 10.217-21.304 14.275-46.231-30.68 75.844-50.917-16.404-10.866-94.38 62.848.213.215 79.89 52.644z"/></g></svg>
    <svg viewBox="0 0 128 128" height="100%" width="100%" pointer-events="none" display="block" id="svg-10" >
        <path fill="#FFCC80" d="M41.6 123.8s0 .1-.1.1l.3-.4c-.1.2-.1.2-.2.3z"/>
        <path fill="#8C9EFF" d="M0 0h128v128H0z"/>
        <path fill="#C2C2C2"
              d="M34.8 79.5c-2.5-3.4-5.9-6.4-6.9-10.3v-.1l-.6-.5c-.3-1.2.6-2 .5-3l-2.4-1h-6.9s0 17 17.4 17.3c-.9-.9-.7-1.8-1.1-2.4z"/>
        <path fill="#CFD8DC"
              d="M21.9 64.2l-.1-.3c0-.1 0-.2-.1-.4v-1l.1-.3c.1-.1.1-.2.1-.3.1-.1.1-.2.1-.2.2-.4.1-.8-.2-1.1-.4-.4-1-.4-1.3 0l-.2.2-.2.2c-.1.1-.2.2-.3.4l-.3.6-.3.6c-.1.2-.2.4-.2.7 0 .2-.1.5-.1.8v.5h3c.2-.2.1-.3 0-.4z"/>
        <path fill="#eee"
              d="M116.5 65.2c.1.1.2.1.2.2 0-.1-.1-.2-.2-.2zm8.2 6.1l.6.3c-.3-.1-.4-.2-.6-.3zm1.7 1l.6.3c-.2 0-.4-.1-.6-.3zm-3.4-2.1l.5.3c-.2 0-.4-.2-.5-.3zm-8-6.5zm-.1 64.1c-12-17.2-7.6-52-3.1-67.6v-.1c-3.5-4.2-7.8-11.7-10.2-18.7-1.7-5-4-8.8-6.4-11.8l-1.6-2-10.7 11.8c-1.5 2.1-3.3 1.8-4.1-.6l-7.1-17.3c-.3-.9-.3-1.9 0-2.7.3-1.1-.1-2.1.7-3l-2-.1c-1.3 0-2.5.1-3.7.3-1.7-.3-3.4-.5-5.1-.5-11.9 0-21.9 8.1-24.8 19.2-.5 1.8-.7 3.7-.8 5.6-1.2 3.6-4.2 7.7-11.5 8.4 1.3.4 2.2 1.9 2 3.6l-.5 2.8c-.3 2-1.2 2.4-2.2.9l1.6 8.6.2.9c.1 1.1.3 2.2.6 3.4 1 4 3.2 8.2 7.8 10.9.3.6 1 1.3 2 2.1 8.2 6.7 36 20.7 27.8 46.1h51.3c0-.1-.1-.1-.2-.2zM34.5 59.3c.5 0 1 .4 1 1 0 .5-.4 1-1 1-.5 0-1-.4-1-1s.4-1 1-1zm7.4 3.9c.5 0 1 .4 1 1 0 .5-.4 1-1 1-.5 0-1-.4-1-1 0-.5.5-1 1-1zm-1-8.5c-.5 0-1-.4-1-1 0-.5.4-1 1-1 .5 0 1 .4 1 1s-.5 1-1 1zm3.9-10.9c-.9 0-1.6-.7-1.6-1.6 0-.9.7-1.6 1.6-1.6.9 0 1.6.7 1.6 1.6 0 .9-.7 1.6-1.6 1.6zm73.3 22.7c.1.1.2.2.4.3-.2-.1-.3-.2-.4-.3zm3.2 2.6l.5.3-.5-.3zm-1.6-1.3l.4.3c-.1 0-.3-.1-.4-.3z"/>
        <path fill="#C2C2C2"
              d="M114.9 127.8l.2.2H128V73.2l-1-.6-.6-.3-1.2-.7-.6-.3-1.2-.7-.5-.3-1.2-.8-.5-.3-1.2-.9-.4-.3-1.2-1c-.1-.1-.2-.2-.4-.3l-1.3-1.2c-.1-.1-.2-.1-.2-.2l-1.5-1.5c-1.5-1.6-3-3.3-4.4-5.1-4.6 15.4-13 52.7 4.3 69.1z"/>
        <path fill="#646464"
              d="M26 55.1l.4-2.8c.2-1.8-.6-3.2-2-3.6-.3-.1-.7-.2-1.1-.1-2 .1-2.7 1.9-1.6 3.8l1.8 3.3c.1.2.2.3.3.4 1 1.3 1.9 1 2.2-1z"/>
        <circle fill="#444" cx="44.8" cy="42.2" r="2"/>
        <circle fill="#CFD8DC" cx="34.5" cy="60.3" r="1"/>
        <circle fill="#CFD8DC" cx="40.9" cy="53.7" r="1"/>
        <circle fill="#CFD8DC" cx="41.9" cy="64.2" r="1"/>
        <path fill="#646464"
              d="M70.7 18.8c-.3.8-.3 1.8 0 2.7l8.1 19.3c.8 2.5 2.6 2.7 4.1.6l12.3-11.8 1.4-1.3c.3-.4.5-.9.6-1.3.4-1.2.3-2.4-.1-3.6-1.1-4.3-5.6-8.9-11.2-10.3-5.6-1.4-10.9-.2-13.6 2.7-.8.8-1.3 1.8-1.6 3z"/>
    </svg>
    <svg viewBox="0 0 128 128" height="100%" width="100%" pointer-events="none" display="block" id="svg-11" >
        <path fill="#FFCC80" d="M41.6 123.8s0 .1-.1.1l.3-.4c-.1.2-.1.2-.2.3z"/>
        <path fill="#FFFF8D" d="M0 0h128v128H0z"/>
        <path fill="#F4B400"
              d="M110.3 91.4l-.5-.5c.1.2.3.4.5.5zm-4.4-4.5l.4.5c-.1-.2-.3-.4-.4-.5zm9.8 9.5c.2.2.4.4.7.6-.3-.2-.5-.4-.7-.6zM104.3 85c.2.2.3.4.5.5-.2-.1-.4-.3-.5-.5zm3.7 4.1zm16.9 14l.9.6c-.3-.3-.6-.4-.9-.6zm-28.5-29l.1.2c-.1 0-.1-.1-.1-.2zm15.2 18.6c.2.2.4.4.7.6l-.7-.6zm10 8.2l.9.6-.9-.6zm-18.8-17.7l.4.5c-.1-.1-.3-.3-.4-.5zm-1.4-1.7c.1.1.1.2.2.2-.1 0-.1-.1-.2-.2zm12.2 13l.7.6c-.2-.1-.5-.4-.7-.6zm-15-16.8c.1.1.1.2.2.2l-.2-.2zm-1.2-1.8l.2.3c0-.1-.1-.2-.2-.3zm28.4 27.7l-.9-.6-2.4-1.5-.9-.6c-1-.7-2.1-1.4-3.1-2.2l-2.2-1.8c-.2-.2-.4-.4-.7-.6-.5-.4-1-.8-1.4-1.2l-.7-.6-1.3-1.2-.7-.6c-.5-.4-.9-.9-1.3-1.3l-.5-.5-1.8-1.8c-.6-.6-1.1-1.2-1.6-1.8l-.4-.5-1.2-1.3c-.2-.2-.3-.4-.5-.5l-1.1-1.3-.4-.5-1.2-1.5c-.1-.1-.1-.2-.2-.2-.9-1.2-1.8-2.4-2.6-3.6-.1-.1-.1-.2-.2-.2l-1-1.5-.2-.3c-.3-.5-.6-1-1-1.5l-.1-.2c-1.1-1.8-2-3.5-2.9-5.2-3.1-6-4.8-11.4-5.7-15.9-.2-.9-.3-1.7-.4-2.6L85 13l-8 10.2c-3.7-2.6-8.2-4.2-13.1-4.2s-9.4 1.5-13.1 4.1L42.7 13l-1.8 29-7.7 71.8h.2c-.1 1-.2 2-.2 3 0 4 .8 7.7 2.1 11.2H128v-23.1c-.7-.4-1.5-.8-2.2-1.3zM55 38.4c-.9 0-1.6-.7-1.6-1.6 0-.9.7-1.6 1.6-1.6.9 0 1.6.7 1.6 1.6 0 .8-.7 1.6-1.6 1.6zm17.9 0c-.9 0-1.6-.7-1.6-1.6 0-.9.7-1.6 1.6-1.6.9 0 1.6.7 1.6 1.6 0 .8-.7 1.6-1.6 1.6z"/>
        <circle fill="#444" cx="72.9" cy="36.7" r="2"/>
        <circle fill="#444" cx="55" cy="36.7" r="2"/>
        <path fill="#444" d="M61.6 39.5c-.5 1-.1 1.7 1 1.7h4.6c1.1 0 1.6-.8 1-1.7l-2.3-4c-.5-1-1.4-1-2 0l-2.3 4z"/>
        <path fill="#FF5722"
              d="M92.5 102.7c8.3 11.3 23.6 14.4 35.5 7.8v-5.6l-2.2-1.3-.9-.6-2.4-1.5-.9-.6c-1-.7-2.1-1.4-3.1-2.2l-2.2-1.8c-.2-.2-.4-.4-.7-.6-.5-.4-1-.8-1.4-1.2l-.7-.6-1.3-1.2-.7-.6c-.5-.4-.9-.9-1.3-1.3l-.5-.5-1.8-1.8c-.6-.6-1.1-1.2-1.6-1.8l-.4-.5-1.2-1.3c-.2-.2-.3-.4-.5-.5l-1.1-1.3-.4-.5-1.2-1.5c-.1-.1-.1-.2-.2-.2-.9-1.2-1.8-2.4-2.6-3.6-.1-.1-.1-.2-.2-.2l-1-1.5-.2-.3c-.3-.5-.6-1-1-1.5l-.1-.2c-1.1-1.8-2-3.5-2.9-5.2-7.7 9.4-8.4 23.4-.8 33.7z"/>
    </svg>
    <svg viewBox="0 0 128 128" height="100%" width="100%" pointer-events="none" display="block" id="svg-12"  >
        <path fill="#B9F6CA" d="M0 0h128v128H0z"/>
        <path fill="#444"
              d="M50.4 75.7c-1.6-1.6-3.2-2.9-4.7-4-.9-.6-1-1.7-1.7-2.2-1.8-1-3.2-5.9-5.3-3.4l-.5.8-.4-.9c-1.3-1.2-1-.4-1.3-2.3-.5-4.2 1.2-7.2 5.1-7.8 1-.1 2-.1 2.9.2 9.5-1.8 13.7-7.4 15.2-10 4 5.7 14.3 11.4 38.3 7.8 2.8-4.7 4.5-10.2 4.5-16C102.4 20.8 88.6 7 71.6 7c-6.7 0-12.8 2.1-17.9 5.7L27.9 31C16.3 36.6 8.3 48.5 8.3 62.2c0 19.1 15.5 34.6 34.6 34.6 4.6 0 9-.9 13-2.5.2-8.4-1.4-14.5-5.5-18.6zm-5.9-21.6z"/>
        <path fill="#8D6E63"
              d="M73.7 122c6.1.5 13.4-.3 22-3.5-.1-.7-.3-1.4-.5-2.1-.3-1.3-3.8-21.4-4-28.1-.1-7.3.8-11.9 2-14.7h8.7l-2.5-10.1c-.2-2.4-.4-4.7-.7-6.6-.2-1.8-.3-2.3-.8-3.9-24 3.6-34.2-3.7-38.2-9.4-1.4 2.5-5.7 8.8-15.3 10.5-.9-.3-1.9-.3-2.9-.2-3.9.6-6.7 4.5-6.1 8.8.3 2 1.2 3.6 2.5 4.8.2.1 1.5.6 3.3 1.7.7.4 1.6.9 2.4 1.6 1.5 1.1 3.1 2.4 4.7 4 4 4.1 7.6 10.2 7.4 18.5-.1 4.9-1.6 10.6-5.1 17.2.1 0 7.3 10.2 23.1 11.5zM44.5 54.1z"/>
        <path fill="#FFCC80" d="M41.6 123.8s.1-.2.2-.3c-.1.2-.1.2-.2.3z"/>
        <circle fill="#444" cx="83.5" cy="63.1" r="2"/>
        <path fill="#0097A7"
              d="M73.7 122c-15.9-1.3-23-11.5-23-11.5-2.1 4-5.1 8.4-8.9 13.1l-.3.4c-.5.6-1.1 1.3-1.7 2-.5.6-1 1.3-1.6 2.1h59.7c-.7-3.2-1.5-6.4-2.1-9.5-8.7 3.1-16 3.9-22.1 3.4z"/>
    </svg>
    <svg viewBox="0 0 128 128" height="100%" width="100%" pointer-events="none" display="block" id="svg-13" >
        <path fill="#448AFF" d="M0 0h128v128H0z"/>
        <g fill="#00BFA5">
            <path d="M73 18.7c-4.8 0-9.7.8-14 2.3-.1.1-.2.2-.4.3l-7.3 4.6c-.6.4-1.4.4-2 .1-.3-.2-.6-.4-.8-.7l-.7-1.1c-.6-1-.3-2.2.6-2.8l7.3-4.6c.4-.2.8-.3 1.2-.3-5.5-3-23.7-10.7-33.7 10.7-11.8 25.4 11 50.2-14.4 62.6 0 0 26.2 13.7 40.9-24.8 3.7 3.2 8.8 5.8 16 7.4-.6-5.6.8-9.8-2.1-12.8-1.3-1.4-2.7-1.5-4-2.4-.7-.5-1.4-.9-2-1.3-1.5-.9-2.6-1.3-2.8-1.4-1.1-1-1.9-2.4-2.1-4.1-.5-3.6-2.2-6.9 1.1-7.4.8-.1 1.6-.1 2.4.2 8-1.5 11.6-6.7 12.8-8.9 3.4 4.8 11.7 9.8 31.9 6.8.3 1.1.6 1.2.8 2.4l.5-1.3c-.1-13-13.2-23.5-29.2-23.5zM56.1 43.2zm5.3 46.5s6 8.6 19.4 9.7c5.1.4 11.3-.3 18.6-2.9-.1-.6-.3-1.2-.4-1.7-.2-1.1-3.2-18-3.4-23.6-.2-6.2.6-10 1.6-12.4h7.3l-2.1-8.5c-.1-2-.4-3.9-.6-5.6 0-.3-.1-.7-.2-1-.2-1.1-.4-2.3-.8-3.4-20.2 3-28.5-2-31.9-6.8-1.2 2.1-4.8 7.4-12.8 8.9-.8-.2-1.6-.3-2.4-.2-3.3.5-5.6 3.8-5.1 7.4.2 1.7 1 3.1 2.1 4.1.2.1 1.3.5 2.8 1.4.6.4 1.3.8 2 1.3 1.3.9 2.6 2 4 3.4 2.9 3 5.6 7.2 6.1 12.8.5 4.5-.6 10.2-4.2 17.1zm27.5-41.2c.7 0 1.3.6 1.3 1.3s-.6 1.3-1.3 1.3-1.3-.6-1.3-1.3.6-1.3 1.3-1.3zm-32.8-5.3c.1-.1 0-.1 0 0zm-2.4 57.7l.2-.2-.2.2z"/>
            <circle cx="88.9" cy="49.8" r="2"/>
            <path d="M80.8 99.3c-13.3-1.1-19.4-9.7-19.4-9.7-1.8 3.4-4.3 7.1-7.5 11l-.3.3c-.4.5-.9 1.1-1.4 1.7-.7.9-1.6 2.1-2.8 3.7-2.3 3.2-5.4 7.8-8.8 13.5-1.4 2.4-2.9 5.1-4.4 8 0 0 0 .1-.1.1h71.3c-.6-1.6-1.3-3.2-1.7-4.8-2.2-8.6-4.6-17.9-6.5-26.8-7.2 2.8-13.3 3.5-18.4 3zM55.7 16.7l-7.3 4.6c-1 .6-1.3 1.9-.6 2.8l.7 1.1c.2.3.5.6.8.7.6.3 1.4.3 2-.1l7.3-4.6.4-.3c.7-.7.8-1.7.3-2.5l-.7-1.1c-.4-.6-1-.9-1.6-1-.5 0-1 .1-1.3.4z"/>
        </g>
        <path fill="#444"
              d="M73 18.7c-4.8 0-9.7.8-14 2.3-.1.1-.2.2-.4.3l-7.3 4.6c-.6.4-1.4.4-2 .1-.3-.2-.6-.4-.8-.7l-.7-1.1c-.6-1-.3-2.2.6-2.8l7.3-4.6c.4-.2.8-.3 1.2-.3-5.5-3-23.7-10.7-33.7 10.7-11.8 25.4 11 50.2-14.4 62.6 0 0 26.2 13.7 40.9-24.8 3.7 3.2 8.8 5.8 16 7.4-.6-5.6.8-9.8-2.1-12.8-1.3-1.4-2.7-1.5-4-2.4-.7-.5-1.4-.9-2-1.3-1.5-.9-2.6-1.3-2.8-1.4-1.1-1-1.9-2.4-2.1-4.1-.5-3.6-2.2-6.9 1.1-7.4.8-.1 1.6-.1 2.4.2 8-1.5 11.6-6.7 12.8-8.9 3.4 4.8 11.7 9.8 31.9 6.8.3 1.1.6 1.2.8 2.4l.5-1.3c-.1-13-13.2-23.5-29.2-23.5zM56.1 43.2z"/>
        <path fill="#FFE0B2"
              d="M61.4 89.7s6 8.6 19.4 9.7c5.1.4 11.3-.3 18.6-2.9-.1-.6-.3-1.2-.4-1.7-.2-1.1-3.2-18-3.4-23.6-.2-6.2.6-10 1.6-12.4h7.3l-2.1-8.5c-.1-2-.4-3.9-.6-5.6 0-.3-.1-.7-.2-1-.2-1.1-.4-2.3-.8-3.4-20.2 3-28.5-2-31.9-6.8-1.2 2.1-4.8 7.4-12.8 8.9-.8-.2-1.6-.3-2.4-.2-3.3.5-5.6 3.8-5.1 7.4.2 1.7 1 3.1 2.1 4.1.2.1 1.3.5 2.8 1.4.6.4 1.3.8 2 1.3 1.3.9 2.6 2 4 3.4 2.9 3 5.6 7.2 6.1 12.8.5 4.5-.6 10.2-4.2 17.1zm27.5-41.2c.7 0 1.3.6 1.3 1.3s-.6 1.3-1.3 1.3-1.3-.6-1.3-1.3.6-1.3 1.3-1.3zm-32.8-5.3c.1-.1 0-.1 0 0z"/>
        <path fill="#FFCC80" d="M53.7 100.9l.2-.2-.2.2z"/>
        <circle fill="#444" cx="88.9" cy="49.8" r="2"/>
        <path fill="#FF5722"
              d="M80.8 99.3c-13.3-1.1-19.4-9.7-19.4-9.7-1.8 3.4-4.3 7.1-7.5 11l-.3.3c-.4.5-.9 1.1-1.4 1.7-.7.9-1.6 2.1-2.8 3.7-2.3 3.2-5.4 7.8-8.8 13.5-1.4 2.4-2.9 5.1-4.4 8 0 0 0 .1-.1.1h71.3c-.6-1.6-1.3-3.2-1.7-4.8-2.2-8.6-4.6-17.9-6.5-26.8-7.2 2.8-13.3 3.5-18.4 3z"/>
        <path fill="#00BFA5"
              d="M55.7 16.7l-7.3 4.6c-1 .6-1.3 1.9-.6 2.8l.7 1.1c.2.3.5.6.8.7.6.3 1.4.3 2-.1l7.3-4.6.4-.3c.7-.7.8-1.7.3-2.5l-.7-1.1c-.4-.6-1-.9-1.6-1-.5 0-1 .1-1.3.4z"/>
    </svg>
    <svg viewBox="0 0 128 128" height="100%" width="100%" pointer-events="none" display="block" id="svg-14"  >
        <path fill="#B388FF" d="M0 0h128v128H0z"/>
        <path fill="#1C3AA9" d="M70.5 128h12.4c-5.1-15.8-6.6-23.9-7.2-28.4-1.9 8.8-4 19.3-5.2 28.4z"/>
        <path d="M92.9 32.8l-.2.1c.1 0 .2 0 .2-.1zm-1.2.5l-.7.1.7-.1zm.6-.2l-.3.1.3-.1zm-52 .3c-.2 0-.5 0-.7-.1.3 0 .5.1.7.1zm-.9-.2l-.5-.1.5.1zm-.7-.2c-.2-.1-.4-.2-.5-.3.1.1.3.2.5.3z"
              fill="none"/>
        <path fill="#2A56C6" d="M82.9 90.8v.2-.2z"/>
        <path fill="#FFE0B2"
              d="M31.2 47.2zM45.8 93c5.8 5.5 13.6 9.1 22.3 9.3 2.8-.1 5.4-.5 8-1.2l.8-3.8c4.3-19.3 9.7-37.4 15-52.9h6.9L94 36.2c-.2-1.2-.4-2.5-.7-3.6l-.4.3-.2.1-.4.2-.3.1-.3.1-.7.1H40.3c-.2 0-.5 0-.7-.1-.1 0-.1 0-.2-.1l-.5-.1-.2-.1c-.2-.1-.4-.2-.5-.3 0 0-.1 0-.1-.1-.1.2-.1.4-.1.7-1-.3-2-.4-3-.3-4.1.6-6.9 4.7-6.3 9.1.3 2 1.2 3.8 2.6 5 .3.1 1.6.7 3.4 1.7.8.4 1.6 1 2.5 1.6 1.5 1.1 3.2 2.5 4.9 4.1 0 0 16.3 12.3 3.4 38 .1.2.2.3.3.4zm34.1-51.9c.8 0 1.5.7 1.5 1.6 0 .9-.7 1.6-1.5 1.6s-1.5-.7-1.5-1.6.6-1.6 1.5-1.6z"/>
        <path fill="#2A56C6"
              d="M68.1 102.3c-8.7-.2-16.5-3.8-22.3-9.3-.1-.1-.2-.2-.4-.3-3-.2-7.6.2-10.8.6-4.6.6-9.6 1.3-15 2.4-3.6.7-8.1 1.9-19.7 5.3v27h71.4c1.3-9.1 2.9-18.1 4.7-26.9-2.5.7-5.1 1.1-7.9 1.2z"/>
        <path fill="#6D4C41" d="M61.8 9.8c-7.3 1.1-13.6 5.1-17.9 10.8h43.7C81.5 12.7 71.9 8.3 61.8 9.8z"/>
        <path fill="#E65100"
              d="M38.7 33l.2.1c.2.1.3.1.5.1.1 0 .1 0 .2.1l.7.1H91c.2 0 .5 0 .7-.1l.3-.1.3-.1c.1 0 .3-.1.4-.2l.2-.1.4-.3c1-.7 1.6-1.9 1.6-3.2v-4.8c0-2.2-1.8-4-4-4H40.4c-2.2 0-4 1.8-4 4v4.8c0 1.4.7 2.6 1.8 3.3 0 0 .1 0 .1.1s.2.2.4.3z"/>
        <ellipse fill="#444" cx="79.9" cy="42.7" rx="2" ry="2.2"/>
    </svg>
    <svg viewBox="0 0 128 128" height="100%" width="100%" pointer-events="none" display="block" id="svg-15" y="256">
        <path fill="#FF80AB" d="M0 0h128v128H0z"/>
        <path fill="#5D4037"
              d="M87.3 11.7c-7.6 0-14.1 4.9-16.4 11.7-2.8-1.6-5.9-2.7-9.1-3.1-13.9-2.1-26.9 7.1-31.1 21.1 5 .8 9.5 3.1 13.4 3.1 1.4-.6 3-.9 4.6-.9 1.1 0 2.2.2 3.3.5 10-1.3 15.2-5.2 17.9-9 .3.5.6 1 1 1.6v.1c2.1 3.1 6.6 7.7 14.7 9.2.9-.3 1.9-.4 3-.2 1.5.2 2.8-1.1 3.8-.1 7-2.2 12.2-8.8 12.2-16.5 0-9.7-7.8-17.5-17.3-17.5z"/>
        <path d="M70.9 36.6c-.4-.6-.8-1.2-1-1.6.2.5.5 1 1 1.6z" fill="none"/>
        <path fill="#5D4037" d="M85.6 45.9z"/>
        <path fill="#FFCC80"
              d="M48.6 63.8c5.6 0 10.1-4.5 10.1-10.1s-4.5-10.1-10.1-10.1-10.1 4.5-10.1 10.1c.1 5.5 4.6 10.1 10.1 10.1zm-1.7-10.5c0 .9-.7 1.6-1.6 1.6-.9 0-1.6-.7-1.6-1.6 0-.9.7-1.6 1.6-1.6.9-.1 1.6.7 1.6 1.6zm38.7-7.4z"/>
        <path fill="#F9A825"
              d="M35.6 117.3c0 2.5 2.1 4.6 4.6 4.6s4.6-2.1 4.6-4.6c0-1.7-.9-3.2-2.3-4-.8-.2-1.8-.3-2.7-.6-2.3.3-4.2 2.2-4.2 4.6z"/>
        <circle fill="#F9A825" cx="64.3" cy="117.1" r="4.6"/>
        <path fill="#F9A825"
              d="M83.4 117.3c0 2.5 2.1 4.6 4.6 4.6 1.5 0 2.8-.7 3.7-1.8l-.7-.9-.6-.8c-.6-.7-1.3-1.5-1.8-2.1l-.3-.4c-.4-.5-.8-.9-1.2-1.5-.3-.4-.6-.8-.9-1.3-1.7.8-2.8 2.4-2.8 4.2z"/>
        <path fill="#FFEE58"
              d="M91.6 119.8c-.8 1-2.1 1.7-3.5 1.7-2.4 0-4.4-2-4.4-4.4 0-1.8 1-3.3 2.5-4-3-3.9-5.3-7.5-7.2-11 .2.1-7.3 10.6-23.7 12-3.8.3-8 .1-12.8-.8 1.3.8 2.2 2.2 2.2 3.8 0 2.4-2 4.4-4.4 4.4s-4.4-2-4.4-4.4c0-2.3 1.8-4.2 4-4.4-2.4-.6-4.8-1.3-7.4-2.2-1.2 5.7-2.6 11.6-4.1 17.5h69c-1.4-2-2.6-3.8-3.7-5.3m-29.4-1.2c-2.4 0-4.4-2-4.4-4.4s2-4.4 4.4-4.4 4.4 2 4.4 4.4c0 2.4-2 4.4-4.4 4.4z"/>
        <path fill="#FFCC80"
              d="M92.4 45.6c-1-1-2.4-1.7-3.8-1.9-1-.2-2-.1-3 .2-8.1-1.5-12.6-6.1-14.7-9.2-.5-.7-.8-1.2-1.1-1.7-2.7 3.8-7.9 7.7-17.9 9l.9.3-9.4.4.6-.3c-3.9 0-8.3-.4-13.4-1.1-.5 1.7-.9 3.5-1.2 5.3-.2 1.8-.5 3.8-.6 6l-.3 2-2.3 9.4h9c1.2 3 2.1 7.7 1.9 15.3-.2 6.9-3.9 27.7-4.2 29-.1.7-.3 1.4-.5 2.1 2.6.9 5 2 7.3 2.5l2.7.5c4.8.9 9.2 1.4 13 1.1 16.4-1.3 24-12 24-12-9.8-18.4-4.6-30.7 2.1-37.5 1.6-1.7 3.3-3 4.9-4.1.9-.6 1.7-1.2 2.5-1.6 1.8-1.1 3.2-1.6 3.4-1.7 1.3-1.2 2.3-3 2.6-5 .3-2.6-.7-5.3-2.5-7zm-32.9 2.7c.5 1 .8 2 1 3.1l-1-3.1z"/>
        <path fill="#DB4437"
              d="M36.6 54.7c.5 6.2 5.7 11.1 12 11.1 6.7 0 12.1-5.4 12.1-12.1 0-5.5-3.7-10.2-8.8-11.6-1-.3-2.1-.5-3.3-.5-1.6 0-3.2.3-4.6.9-4.1 1.7-7.1 5.6-7.4 10.2h-7.7l-.1.9-.3 1.1h8.1zm12-11.1c5.6 0 10.1 4.5 10.1 10.1s-4.5 10.1-10.1 10.1-10.1-4.5-10.1-10.1c.1-5.6 4.6-10.1 10.1-10.1z"/>
        <circle fill="#444" cx="45.3" cy="53.3" r="2"/>
    </svg>
    <svg viewBox="0 0 128 128" height="100%" width="100%" pointer-events="none" display="block" id="svg-16" >
        <path fill="#B388FF" d="M0 0h128v128H0z"/>
        <path fill="#444"
              d="M58.4 24c4.2 5.9 23.9 10.2 38.9 4.6-4.2-14-17.1-23.2-31.1-21.1-11.7 1.8-20.8 11.2-23.7 22.9 7 3.2 14.5-3.8 15.9-6.4z"/>
        <path fill="#689F38"
              d="M72.7 101.3C56.3 100 48.8 89.4 48.8 89.4c-2.2 4.2-5.2 8.7-9.2 13.5l-.3.4-1.7 2c-.9 1.1-2 2.6-3.4 4.5-2.8 3.9-6.6 9.5-10.8 16.6l-.8 1.4h80.1c-2.5-9.8-5.1-20.3-7.3-30.2-8.9 3.4-16.5 4.3-22.7 3.7z"/>
        <path fill="#FFCC80"
              d="M101.8 51.3l-2.6-10.4c-.2-2.5-.5-4.9-.7-6.9-.2-1.9-.6-3.6-1.2-5.3-24.8 3.7-35-2.5-39.1-8.4-1.5 2.6-5.8 8.4-15.6 10.2-.1.2-.1.5-.1.7-.9-.3-1.9-.4-3-.2-4.1.6-6.9 4.7-6.3 9.1.3 2 1.2 3.8 2.6 5 .3.1 1.6.7 3.4 1.7.8.4 1.6 1 2.5 1.6 1.5 1.1 3.2 2.5 4.9 4.1 6.6 6.8 12.1 18.6 2.4 37 0 0 7.4 10.6 23.8 11.9 6.3.5 13.8-.3 22.8-3.6l-.5-2.1c-.3-1.4-4-22.1-4.2-29-.2-7.6.7-12.3 1.9-15.3h9zM81.1 40.5c0-.9.7-1.6 1.6-1.6.9 0 1.6.7 1.6 1.6 0 .9-.7 1.6-1.6 1.6-.9.1-1.6-.7-1.6-1.6zm-41.7 62.8s0 .1-.1.1l.3-.4c0 .1-.1.2-.2.3z"/>
        <circle fill="#444" cx="82.7" cy="40.5" r="2"/>
    </svg>
      <svg xmlns="http://www.w3.org/2000/svg" width="2500" height="2500" viewBox="0 0 192.756 192.756" id="svg-2">
        <g fill-rule="evenodd" clip-rule="evenodd"><path fill="#fff" d="M0 0h192.756v192.756H0V0z"/><path d="M64.466 90.115l-4.258 10.61h5.891L64.485 90.07l-.019.045zM41.91 114.469l17.467-35.957h13.202l7.366 35.957H68.35l-.852-4.791H56.25l-2.588 4.791H41.91zm43.522 0l5.06-35.957h11.682l-5.059 35.957H85.432zm77.691-24.399l-4.275 10.655h5.891l-1.616-10.655zm-22.574 24.399l17.467-35.957h13.201l7.365 35.957h-11.594l-.852-4.791h-11.248l-2.588 4.791h-11.751zM114.725 97.656h14.636l10.03 16.612h-14.639l-10.027-16.612z" fill="#0d6fab"/><path fill="#db8135" d="M116.246 95.104h15.129l13.139-16.54h-15.129l-13.139 16.54zM101.117 114.369h15.129l13.139-16.744h-15.129l-13.139 16.744z"/>
      <path fill="#0d6fab" d="M106.572 78.362h14.121l9.674 16.742h-14.121l-9.674-16.742zM42.257 79.8l-1.124 10.575c-4.306-5.939-14.284-1.841-15.068 5.558-.996 9.392 8.608 11.583 13.835 6.052l-1.127 10.6c-1.56.768-3.085 1.361-4.59 1.764a18.783 18.783 0 0 1-4.487.648c-1.872.039-3.567-.158-5.096-.588a12.436 12.436 0 0 1-4.134-2.002c-2.36-1.725-4.066-3.918-5.118-6.588-1.05-2.678-1.397-5.699-1.038-9.076.288-2.713.973-5.188 2.062-7.432 1.08-2.244 2.576-4.281 4.481-6.129 1.801-1.763 3.762-3.092 5.885-3.996 2.113-.895 4.421-1.373 6.915-1.425a17.085 17.085 0 0 1 4.37.46c1.425.341 2.831.873 4.234 1.579z"/></g></svg>
    <svg viewBox="0 0 128 128" height="100%" width="100%" pointer-events="none" display="block" id="svg-3" >
        <path fill="#80D8FF" d="M0 0h128v128H0z"/>
        <path fill="#5D4037"
              d="M53.7 68.3c.9-.1 1.7-.3 2-.9.1-.2.2-.4.2-.6.2-1-.2-2-.5-3-1.2-3.2-2-6.4-2.2-9.8-.3-3.9.4-7.8 1-11.6l12.7-8.1c.8-.5 1.8-1.5 2.7-1.7.9-.3 2.4.6 3.3.8 1.3.4 2.6.6 4 .9 5.4.9 10.9.7 16.2-.6 1.3-.3 2.7-1.1 4-1.3-.3-2.1-1.5-4.3-2.5-6.1-1-1.9-2.2-3.7-3.6-5.3-2.7-3.2-6-5.8-9.8-7.5-3.3-1.5-6.8-2.4-10.4-2.5 0 0-50.8-8.1-42.4 56.4l12.8.5 8.7.3c.9-.1 2.5.2 3.8.1z"/>
        <path d="M59.5 25.7l-.3-.4c0 .2.1.3.3.4zm-1-1.2c-.2-.2-.3-.4-.4-.6.1.2.2.4.4.6zm.4.6l-.3-.4.3.4zm1.1 1.2l-.4-.4c.2.1.3.3.4.4zM46.3 56.2zm.5.4l.3.3-.3-.3zm-.2-.2l.2.2-.2-.2zm-.2-.2l.1.1-.1-.1zm14.3-29.3l-.4-.4c.1.1.2.3.4.4zm8.6 4.7l-1-.3c.3 0 .6.2 1 .3zm1.3.3c-.4-.1-.8-.2-1.1-.3.3.1.7.2 1.1.3zm-23.4 25l.4.4c-.2-.1-.3-.3-.4-.4zm27-24.2l-.9-.2c.3.1.6.2.9.2zm-12.8-5.2l-.5-.4c.1.1.3.2.5.4zm6.7 3.7c-.3-.1-.6-.2-.9-.4.2.1.6.2.9.4zm-5.9-3.1l-.6-.5.6.5zm3.7 2.2c-1.4-.6-2.6-1.3-3.6-2.1 1 .7 2.2 1.4 3.6 2.1zm1.1.4l-.9-.4c.2.2.5.3.9.4zm20.1 2.7h-.8.8zm-3.2 0h1.4-1.4zm-3.9 0l1.9.1c-.6 0-1.1 0-1.7-.1H80zm2 0h1.6H82zm6.1-.1c.3 0 .7 0 1-.1h-.2c-.2.1-.5.1-.8.1zm6.2-.6l-.7.1c1.2-.1 2.4-.3 3.6-.5l-2.2.3c-.2.1-.5.1-.7.1zm-3.4.4c-.3 0-.6 0-.8.1.9-.1 1.9-.2 2.9-.3l-.8.1c-.5 0-.9 0-1.3.1zM51.1 61.9c.2.3.4.6.5 1-.2-.4-.3-.7-.5-1zm-3.5-4.6c.8.8 1.8 1.9 2.8 3.5-1-1.5-2-2.7-2.8-3.5zm2.9 3.6l.6.9c-.3-.3-.5-.6-.6-.9zm1.2 2.1l.6 1.1c-.3-.4-.4-.8-.6-1.1zm26.5-29.8l-.9-.1c-.2 0-.3 0-.5-.1l-.9-.1h-.2c1.3.2 2.6.3 4 .4-.3 0-.6 0-.9-.1-.2.1-.4.1-.6 0zm-3.8-.4l1.1.2-.9-.1c-.1-.1-.2-.1-.2-.1zm-3.7-.8c.7.2 1.5.4 2.3.5l-.9-.2-1.4-.3zM52.2 64.1c.6 1.2 1.1 2.6 1.5 4.1-.4-1.5-.9-2.9-1.5-4.1z"
              fill="none"/>
        <path fill="#E65100"
              d="M101.3 128h.3c-2.4-9.5-4.8-19.4-6.8-28.7-7.6 2.7-39.3.6-45.1-5.1-2.5 4.9-6 10.3-10.8 16.2H97l4.3 17.6z"/>
        <path fill="#2A56C6" d="M97.2 92.5v-.2.2z"/>
        <path fill="#00838F" d="M39.2 107.1l.3-.4-.3.3v.1z"/>
        <path fill="#EE8100"
              d="M101.6 128c-1.5-5.8-3-11.8-4.3-17.7H38.9c-.9 1.1-2.1 2.2-3.1 3.3-.2.2-.3.4-.5.5-4 4.6-7.5 9.2-10.4 13.8h76.7z"/>
        <path fill="#FFE0B2"
              d="M72.4 103.8c5.9-.2 14.8-1.8 22.4-4.5-.3-1.4-.6-2.7-.8-4.1-1.9-9.4-3.2-18.1-3.4-25-.5-19.6 6.6-20.2 6.6-20.2h2.1c0-4.2-.5-8.8-.9-12.3-.2-1.9-.6-3.6-1.2-5.3l-3.6.5-.6.1-2.9.3c-.3 0-.6 0-.9.1-.3 0-.7 0-1 .1-.3 0-.7 0-1 .1h-5.1c-.7 0-1.3 0-1.9-.1h-.3c-1.4-.1-2.8-.2-4-.4h-.2l-1.1-.2h-.2l-.9-.2c-.1 0-.2 0-.3-.1l-2.3-.5h-.1c-.4-.1-.8-.2-1.1-.3-.1 0-.1 0-.2-.1l-1-.3c-.1 0-.1 0-.2-.1-.3-.1-.6-.2-.9-.4-.1 0-.1 0-.2-.1l-.9-.4s-.1 0-.1-.1c-1.4-.6-2.6-1.3-3.6-2.1l-.1-.1-.6-.5-.2-.2-.5-.4-.2-.2-.4-.4-.2-.2-.4-.4-.2-.2-.3-.4-.2-.2-.3-.4-.1-.2c-.2-.2-.3-.4-.4-.6l-8 24.9-11.2-14.1c-4.1.6-6.9 4.7-6.3 9.1.3 2 1.2 3.8 2.6 5 .3.1 1.6.7 3.4 1.7.8.4 1.6 1 2.5 1.6 1.5 1.1 3.2 2.5 4.9 4.1h.1l.1.1.2.2.1.1.3.3.1.1.4.4c.8.8 1.8 1.9 2.8 3.5v.1l.6.9s0 .1.1.1c.2.3.4.6.5 1 0 0 0 .1.1.1l.6 1.1c.6 1.2 1.1 2.6 1.5 4.1 1.7 6.2 1.6 14.8-4 25.9 5.6 5.8 13.6 9.4 22.5 9.7z"/>
        <circle fill="#444" cx="84.2" cy="44.1" r="2"/>
    </svg>
      <svg xmlns="http://www.w3.org/2000/svg" width="2500" height="2500" viewBox="0 0 192.756 192.756" id="svg-4"><g fill-rule="evenodd" clip-rule="evenodd"><path fill="#fff" d="M0 0h192.756v192.756H0V0z"/><path d="M71.614 79.25c.944-.101 1.484-.168 1.484-1.197v-8.161c0-1.113-.708-1.146-1.484-1.197v-.422h5.21c.944 0 4.384.067 4.384 2.698 0 1.872-1.906 2.311-2.614 2.529v.034c1.417.236 3.187 1.079 3.187 3.001 0 1.417-1.18 3.069-4.738 3.137h-5.43v-.422h.001zm4.182-1.146c0 .759.304 1.029 1.012 1.029 1.854 0 2.074-1.501 2.074-2.53 0-2.411-1.484-2.664-2.58-2.715h-.506v4.216zm0-4.722c2.26 0 2.63-.708 2.63-2.428 0-1.18-.371-2.175-1.736-2.175-.86 0-.877.438-.894.826v3.777zM90.818 78.947c-.472.556-1.096.961-1.855.961-1.18 0-1.315-.708-1.417-1.18-1.096 1.096-2.276 1.18-2.681 1.18-.81 0-1.855-.523-1.855-1.804 0-1.754 2.142-2.428 4.536-3.153V73.72c0-.86-.236-1.484-1.484-1.484-.607 0-.995.337-.995.607 0 .354.506.489.506 1.147 0 .303-.253.944-1.13.944-.202 0-1.113 0-1.113-1.146 0-1.062 1.062-2.091 3.153-2.091 1.872 0 3.373.725 3.373 2.31v4.401c0 .101 0 .421.371.421a.217.217 0 0 0 .168-.067l.169-.168.254.353zm-3.289-3.406c-.388.084-2.057.573-2.057 2.041 0 .522.253 1.129.86 1.129.573 0 .961-.456 1.197-.725v-2.445zM100.107 79.672h-3.963v-.405c.556-.051.793-.337.793-.961v-4.081c0-.472-.018-1.399-.928-1.399-.675 0-1.399.826-1.399.978v4.502c0 .388.05.877.826.961v.405h-4.064v-.405c.607-.118.894-.186.894-1.012v-4.957c0-.759-.22-.894-.894-.995v-.404h3.221v1.214h.034c.236-.405.961-1.417 2.395-1.417.928 0 2.26.523 2.26 2.377v4.232c0 .405 0 .928.826.961v.406h-.001zM107.641 78.138c-.775 1.096-1.889 1.771-3.221 1.771-2.158 0-3.609-1.787-3.609-3.861 0-3.322 2.395-4.351 3.98-4.351 1.197 0 2.613.624 2.613 1.838 0 1.079-1.012 1.079-1.146 1.079-.945 0-.945-.826-.945-1.737 0-.506-.438-.657-.689-.657-1.316 0-1.434 2.074-1.434 2.833 0 2.361 1.027 3.727 2.344 3.727.961 0 1.398-.489 1.805-.944l.302.302zM112.105 71.696c2.209 0 3.793 1.771 3.793 4.115 0 2.242-1.5 4.097-3.793 4.097-2.346 0-3.812-1.905-3.812-4.097 0-2.176 1.467-4.115 3.812-4.115 0 0-2.345 0 0 0zm.016 7.689c1.164 0 1.299-1.433 1.299-3.574 0-2.597-.287-3.592-1.314-3.592-1.248 0-1.332 1.669-1.332 3.592-.001 1.821-.001 3.574 1.347 3.574 0 0-1.348 0 0 0zM83.54 90.222c-.481-1.872-2.086-4.948-5.242-4.948-1.391 0-2.862.803-2.862 2.541 0 1.444.508 2.033 2.755 3.156l3.932 1.952c.909.455 2.941 2.006 2.941 4.921 0 2.354-1.711 5.59-6.632 5.59-2.541 0-3.744-.91-4.574-.91-.562 0-.695.482-.802.91h-.776v-6.605h.776c.535 2.701 2.086 5.723 5.482 5.723 3.209 0 3.343-2.648 3.343-2.996 0-1.791-1.257-2.434-2.995-3.262l-1.792-.856c-4.573-2.193-4.573-4.493-4.573-5.723 0-1.631.829-5.269 5.911-5.269 2.14 0 3.396.883 4.172.883.615 0 .749-.401.882-.909h.803v5.803h-.749v-.001zM99.26 101.775c-.748.883-1.738 1.523-2.941 1.523-1.872 0-2.086-1.123-2.247-1.871-1.738 1.738-3.61 1.871-4.252 1.871-1.284 0-2.942-.828-2.942-2.861 0-2.781 3.396-3.851 7.194-5v-1.952c0-1.364-.374-2.354-2.353-2.354-.963 0-1.578.535-1.578.963 0 .562.802.776.802 1.819 0 .481-.401 1.498-1.792 1.498-.321 0-1.766 0-1.766-1.819 0-1.685 1.685-3.316 5.001-3.316 2.969 0 5.349 1.15 5.349 3.664v6.981c0 .16 0 .668.588.668a.345.345 0 0 0 .268-.107l.268-.268.401.561zm-5.215-5.402c-.615.133-3.262.908-3.262 3.236 0 .828.401 1.791 1.364 1.791.909 0 1.524-.723 1.898-1.15v-3.877zM113.996 102.926h-6.285v-.643c.883-.08 1.256-.535 1.256-1.523v-6.473c0-.749-.025-2.22-1.471-2.22-1.07 0-2.219 1.311-2.219 1.551v7.142c0 .615.08 1.391 1.311 1.523v.643h-6.445v-.643c.963-.188 1.416-.293 1.416-1.605v-7.862c0-1.203-.348-1.417-1.416-1.578v-.642h5.107v1.926h.053c.375-.642 1.525-2.247 3.799-2.247 1.471 0 3.584.829 3.584 3.771v6.713c0 .641 0 1.471 1.311 1.523v.644h-.001zM122.604 91.773h-2.516v8.049c0 .428-.025 1.525 1.045 1.525.773 0 1.229-.83 1.523-1.391l.668.293c-.561 1.15-1.523 2.996-3.932 2.996-2.887 0-2.994-2.246-3.021-2.809v-8.665h-1.391v-.722c1.418-1.204 2.621-2.38 4.439-4.974h.668v4.52h2.516v1.178h.001zM136.395 101.775c-.748.883-1.738 1.523-2.941 1.523-1.871 0-2.086-1.123-2.246-1.871-1.738 1.738-3.611 1.871-4.252 1.871-1.285 0-2.941-.828-2.941-2.861 0-2.781 3.396-3.851 7.193-5v-1.952c0-1.364-.375-2.354-2.354-2.354-.963 0-1.578.535-1.578.963 0 .562.803.776.803 1.819 0 .481-.402 1.498-1.793 1.498-.32 0-1.764 0-1.764-1.819 0-1.685 1.684-3.316 5-3.316 2.969 0 5.35 1.15 5.35 3.664v6.981c0 .16 0 .668.588.668a.345.345 0 0 0 .268-.107l.268-.268.399.561zm-5.215-5.402c-.615.133-3.262.908-3.262 3.236 0 .828.4 1.791 1.363 1.791.91 0 1.525-.723 1.898-1.15v-3.877h.001zM151.129 102.926h-6.283v-.643c.881-.08 1.256-.535 1.256-1.523v-6.473c0-.749-.027-2.22-1.471-2.22-1.07 0-2.221 1.311-2.221 1.551v7.142c0 .615.082 1.391 1.311 1.523v.643h-6.443v-.643c.961-.188 1.416-.293 1.416-1.605v-7.862c0-1.203-.348-1.417-1.416-1.578v-.642h5.107v1.926h.053c.375-.642 1.525-2.247 3.799-2.247 1.471 0 3.582.829 3.582 3.771v6.713c0 .641 0 1.471 1.311 1.523v.644h-.001zM165.861 102.391c-3.316.4-3.557.428-5.215.883v-1.738c-.963 1.016-1.713 1.764-3.717 1.764-2.221 0-4.682-2.246-4.682-6.15 0-4.653 2.648-6.873 5.162-6.873 1.605 0 2.514.962 3.156 1.658V87.04c0-1.418-.562-1.444-2.033-1.551v-.642h5.75v15.378c0 .721.055 1.498 1.578 1.551v.615h.001zm-5.295-8.96c0-.027-.588-1.658-2.086-1.658-1.898 0-2.273 2.407-2.273 5 0 1.553 0 5.029 2.139 5.029 1.23 0 2.221-1.578 2.221-1.873v-6.498h-.001zM177.838 99.957c-1.631 2.486-3.154 3.342-5.295 3.342-2.701 0-5.43-1.979-5.43-6.551 0-3.959 2.436-6.473 5.51-6.473 4.654 0 5.002 4.653 5.082 6.098h-6.74c.08 2.273.67 5.002 3.209 5.002 1.578 0 2.514-1.178 3.023-1.793l.641.375zm-3.422-4.574c-.027-.829-.027-2.22-.242-3.022-.16-.588-.508-1.257-1.443-1.257-.99 0-1.898.589-1.898 4.279h3.583zM186.203 102.926h-7.113v-.643c.855-.16 1.443-.268 1.443-1.605v-7.862c0-1.337-.641-1.471-1.443-1.578v-.642h5.055v2.113h.053c.562-.829 1.766-2.434 3.504-2.434 1.818 0 2.221 1.444 2.221 2.086 0 .695-.375 1.792-1.713 1.792-1.551 0-1.523-1.578-2.379-1.578-.402 0-1.578.588-1.578 2.541v5.054c0 1.633.32 2.033 1.951 2.113v.643h-.001zM80.349 121.189c-2.091.254-2.243.271-3.288.557v-1.096c-.607.641-1.079 1.113-2.344 1.113-1.399 0-2.951-1.416-2.951-3.879 0-2.934 1.669-4.334 3.254-4.334 1.011 0 1.585.607 1.99 1.047v-3.086c0-.895-.354-.91-1.282-.979v-.404h3.625v9.695c0 .455.034.945.995.979v.387h.001zm-3.339-5.648c0-.016-.371-1.045-1.315-1.045-1.197 0-1.434 1.518-1.434 3.152 0 .979 0 3.172 1.35 3.172.775 0 1.399-.996 1.399-1.182v-4.097zM87.9 119.656c-1.029 1.568-1.99 2.107-3.339 2.107-1.703 0-3.423-1.248-3.423-4.131 0-2.496 1.535-4.082 3.474-4.082 2.934 0 3.153 2.936 3.204 3.846h-4.249c.051 1.434.422 3.152 2.023 3.152.995 0 1.585-.74 1.905-1.129l.405.237zm-2.159-2.885c-.017-.521-.017-1.398-.151-1.904-.101-.371-.32-.793-.911-.793-.624 0-1.197.371-1.197 2.697h2.259zM92.683 121.105c1.011-.117 1.483-.236 1.483-1.348v-7.994c-.944-1.162-1.214-1.213-1.433-1.213v-.422h3.558l5.851 7.199h.033v-5.109c0-1.012-.201-1.566-1.568-1.668v-.422h3.627v.422c-1.215.15-1.316.539-1.316 1.348v9.932h-.471l-7.504-9.139h-.034v6.746c0 1.213.354 1.533 1.602 1.668v.422h-3.828v-.422zM111.768 119.656c-1.029 1.568-1.99 2.107-3.34 2.107-1.703 0-3.422-1.248-3.422-4.131 0-2.496 1.533-4.082 3.473-4.082 2.934 0 3.154 2.936 3.203 3.846h-4.248c.051 1.434.422 3.152 2.023 3.152.994 0 1.586-.74 1.906-1.129l.405.237zm-2.159-2.885c-.018-.521-.018-1.398-.152-1.904-.102-.371-.32-.793-.91-.793-.625 0-1.197.371-1.197 2.697h2.259zM118.828 114.816c.168.168.674.658.674 1.67 0 1.027-.557 1.904-1.77 2.293-.49.152-.49.152-2.125.152-.32 0-.945.336-.945.842 0 .574.439.59 1.688.607l1.096.018c.826.016 2.766.186 2.766 2.057 0 2.092-2.227 2.547-4.334 2.547-2.09 0-3.338-.59-3.338-1.535 0-.674.605-1.18 1.551-1.266v-.033c-.76-.27-1.314-.521-1.314-1.398 0-1.062 1.246-1.721 1.973-1.924v-.033c-1.248-.455-2.059-1.365-2.059-2.58 0-1.348 1.146-2.682 3.457-2.682.607 0 1.182.102 1.855.371h2.191v.895h-1.366v-.001zm-4.215 7.588c-.439.354-.592.574-.592.945 0 1.078 1.771 1.111 2.059 1.111.674 0 2.799 0 2.799-1.197 0-.605-.473-.859-1.35-.859h-2.916zm1.5-3.945c1.062 0 1.113-1.215 1.113-2.176 0-.758 0-2.209-1.113-2.209-1.029 0-1.113 1.146-1.113 2.209 0 1.164.119 2.176 1.113 2.176 0 0-.994 0 0 0zM124.729 113.551c2.209 0 3.793 1.771 3.793 4.115 0 2.242-1.5 4.098-3.793 4.098-2.344 0-3.811-1.906-3.811-4.098 0-2.176 1.467-4.115 3.811-4.115 0 0-2.344 0 0 0zm.015 7.689c1.164 0 1.299-1.432 1.299-3.574 0-2.598-.287-3.592-1.314-3.592-1.248 0-1.332 1.67-1.332 3.592-.001 1.822-.001 3.574 1.347 3.574 0 0-1.348 0 0 0zM136.176 119.992c-.775 1.098-1.889 1.771-3.221 1.771-2.158 0-3.609-1.787-3.609-3.861 0-3.322 2.395-4.352 3.98-4.352 1.197 0 2.613.625 2.613 1.84 0 1.078-1.012 1.078-1.146 1.078-.945 0-.945-.826-.945-1.736 0-.506-.438-.658-.691-.658-1.314 0-1.434 2.074-1.434 2.834 0 2.359 1.029 3.727 2.346 3.727.961 0 1.398-.49 1.805-.945l.302.302zM140.707 121.527h-4.029v-.404c.605-.152.893-.203.893-1.012v-4.957c0-.76-.252-.877-.893-.996v-.404h3.236v6.408c0 .521.135.893.793.961v.404zm-1.973-11.652c.725 0 1.299.59 1.299 1.316 0 .742-.574 1.299-1.299 1.299-.775 0-1.314-.574-1.314-1.299 0-.709.555-1.316 1.314-1.316 0 0-.759 0 0 0zM145.324 113.551c2.209 0 3.793 1.771 3.793 4.115 0 2.242-1.5 4.098-3.793 4.098-2.344 0-3.812-1.906-3.812-4.098 0-2.176 1.468-4.115 3.812-4.115 0 0-2.344 0 0 0zm.016 7.689c1.164 0 1.299-1.432 1.299-3.574 0-2.598-.287-3.592-1.314-3.592-1.248 0-1.332 1.67-1.332 3.592-.001 1.822-.001 3.574 1.347 3.574 0 0-1.348 0 0 0zM154.832 116.031c-.354-1.197-1.131-1.924-2.092-1.924-.605 0-1.078.439-1.078.961 0 1.721 3.945 1.334 3.945 4.1 0 1.602-1.08 2.596-2.646 2.596-.844 0-1.99-.488-2.143-.488-.186 0-.287.135-.455.471h-.422v-2.781h.473c.102.455.506 2.225 2.377 2.225.844 0 1.197-.605 1.197-1.111 0-1.553-4.014-1.451-4.014-4.047 0-1.484 1.131-2.48 2.682-2.48.793 0 1.484.371 1.805.371.303 0 .371-.201.422-.336h.371v2.445h-.422v-.002z"/><path d="M20.333 92.318c-10.313 2.31-17.499 7.493-17.499 13.514 0 8.172 13.236 14.799 29.562 14.799s29.562-6.627 29.562-14.799c0-6.104-7.381-11.343-17.917-13.606 1.042-5.866-3.929-10.455-7.132-15.075-2.062-2.975-4.231-5.937-3.932-9.396-6.371 9.829 5.654 16.723 8.42 25.096 1.076 3.256.34 6.627-2.227 9.194-1.316 1.316-.435-2.979-1.552-4.637-3.672-5.447-7.992-9.578-10.858-15.21-.574-1.128-1.16-2.537-.759-3.979-2.044 3.741-2.41 7.91-.343 11.489 4.071 7.054 14.876 17.286 6.296 22.731-1.151.73-.204-2.908-1.308-4.568-3.405-5.121-7.923-10.092-10.313-15.553 0 0 2.39 5.461 0 0z" fill="#cc2229"/></g></svg>
    <svg viewBox="0 0 128 128" height="100%" width="100%" pointer-events="none" display="block" id="svg-5" >
        <path fill="#FFFF8D" d="M0 0h128v128H0z"/>
        <path fill="#C2C2C2" d="M51.7 31.4v-22s-19.6 2.5-15.8 29.9c11 0 14.8-4.3 15.8-7.9z"/>
        <path fill="#848484"
              d="M94.1 39.8c.1-1 0-2-.1-3 0-1-.1-1.9-.2-2.9-.2-1.8-.4-3.5-.8-5.2-.6-2.9-1.5-5.8-2.9-8.4-1.1-2.2-2.6-4.2-4.3-6-1.6-1.6-3.3-2.9-5.3-3.9-1.8-1-3.8-1.7-5.8-2.2-2-.5-4-.8-6-.9-1.9-.1-3.8-.1-5.7 0-1.7.1-3.3.3-5 .6-1.3.2-2.5.5-3.8.8l-2.2.6-.4.1v20.8c0 1-.1 1.8.4 2.7.2.3.5.6.6.9.3.9.7 1.8 1.2 2.7 1.1 1.8 2.7 3.4 4.7 4.3 2.4 1.1 5.1 1.4 7.8 1.6 4.8.3 9.6.4 14.3.3 2.2 0 4.3-.3 6.4-.9 1.2-.3 2.4-.6 3.6-1 .6-.2 1.2-.4 1.8-.5.6-.2 1.2-.5 1.7-.5z"/>
        <path fill="#FFE0B2"
              d="M66.8 116.8l17.9-8.7 3.1-8.2c-15.1-17 1.2-31.6 2.3-32.5h.1l13.2-11.1c1.5-1.2 2.5-3 2.8-5 .6-4.4-2.5-8.4-6.9-9.1-1.5-.2-3 0-4.3.6-.2-1-.5-1.9-.8-2.9-26.9 3.7-37.9-2.5-42.4-8.4-1.6 2.6-5.1 6.1-15.8 7.9-.2.9-.5 2-.8 3.1-1.2-.4-2.4-.6-3.8-.4-4.4.6-7.5 4.7-6.9 9.1.3 2 1.3 3.8 2.8 5l7.5 6.4c4.2 4.5 18.4 21.7 9 37l.7 3.7 4.7 4.6 17.6 8.9z"/>
        <path fill="#055524" d="M39.8 104.7zm54.3-.4l-.8 1.5-6.8 12.1V128H128v-2.3z"/>
        <path fill="#FFE0B2" d="M40.4 103.9c-.2.2-.3.4-.5.5 0 0-.1.1-.1.2v.1l.6-.8z"/>
        <circle fill="#444" cx="80" cy="51.7" r="2"/>
        <circle fill="#444" cx="54.3" cy="51.7" r="2"/>
        <path fill="#055524"
              d="M39.8 104.7c-3.2.9-6.1 2.7-8.6 5.5l-.2.2s-.5.6-1.5 1.7c-.9 1.1-2.2 2.6-3.7 4.5-2.3 2.9-5.1 6.7-8.3 11.4h31v-7.8l-8.7-15.5z"/>
        <path fill="#848484" d="M65.3 67.3s2.7 9.8 14.5 9.8c0 0 3.9-18.5-14.5-18.5v8.7z"/>
        <path fill="#C2C2C2" d="M65.3 67.3v-8.7C46.9 58.6 50.8 77 50.8 77c11.8 0 14.5-9.7 14.5-9.7z"/>
        <path fill="#A7FFEB" d="M80.9 128h5.6v-10.1zm-21 0h13.8l-6.9-10zm-11.5 0h4.3l-4.3-7.8z"/>
        <path fill="#1DE9B6"
              d="M66.8 118l-.5-.8.5-.4-22.9-17.3h-.1l-3.4 4.4-.6.8 8.6 15.5 4.3 7.8h7.2zm26.5-12.2l.8-1.5-6.4-4.4-20.9 16.9-.5.4.5.8 6.9 10h7.2l5.6-10.1z"/>
    </svg>
    <svg viewBox="0 0 128 128" height="100%" width="100%" pointer-events="none" display="block" id="svg-6" >
        <path fill="#FF8A80" d="M0 0h128v128H0z"/>
        <path fill="#F2A600"
              d="M30.3 43.7c3.1-.4 6.1 1 7.7 3.4 10.3-2 11-11.5 12.6-14.1 4.5 5.8 13.3 17.8 39.5 14.5 1.6-2.7 4.7-4.3 8-3.8.4 0 .7-1.9 1-1.8-.1-2.2-.3-4.4-.8-6.4v-.1C94.9 19.6 80.8 7.8 64 7.8c-15 0-27.8 9.4-32.8 22.6C29.8 34 29 38 28.9 42.1l.7 1.8.7-.2z"/>
        <path d="M89.1 102.8l.4-.3c-.1 0-.3.1-.4.3zm2.2-1.9l-.5.4c.2-.2.3-.3.5-.4zm-18 9.2c-.1 0-.2 0-.3.1.1-.1.2-.1.3-.1zm-2.4.4h-.2.2zm16.1-6.2l.3-.2-.3.2zm-9 4.5l.5-.2-.5.2zm4.9-2.1l.2-.1c-.1.1-.1.1-.2.1zm2-1.1l.5-.3-.5.3zm-4.6 2.3l.4-.2c-.1.1-.2.2-.4.2zm12.6-8.6zM30.3 41.7c-.3 0-.5.1-.7.1.2 0 .5 0 .7-.1zm35.9 69.2c-.6 0-1.2 0-1.9-.1.6 0 1.2.1 1.9.1z"
              fill="none"/>
        <path fill="#F2A600"
              d="M41.5 101.3l.8.7c-.3-.3-.5-.5-.8-.7zm1.4 1.1c.2.2.5.4.8.6-.3-.2-.6-.4-.8-.6zm1.3 1.1c.2.2.5.4.8.5-.2-.1-.5-.3-.8-.5zm54.1-68.1zM38.7 98.3c.4.4.8.8 1.1 1.3-.4-.4-.8-.8-1.1-1.3zm-7.6-67.9zm15.4 74.7l.5.3-.5-.3zm4.6 2.4l.3.1c-.1 0-.2 0-.3-.1zm-3.1-1.6l.5.3c-.2-.1-.4-.2-.5-.3zm13.6 4.6l-.9-.1.9.1zM88.9 67c-1.6 1.4-3.1 2.7-4.4 3.9-3.3 3.8-6.3 10.3-1 18.7 5.7-8.1 10.6-17.7 13.2-29.1L88.9 67zM41 100.8l-.8-.8.8.8zm8.5 6l.4.2c-.1-.1-.2-.2-.4-.2zm9.5 3.3h.1-.1zm-46.1 17.3c4.5-7.1 8.6-12.7 11.7-16.6 1.5-2 2.8-3.5 3.7-4.5 1-1.1 1.5-1.7 1.5-1.7l.2-.2c2.4-2.7 5.3-4.5 8.4-5.4.1-.2.2-.4.2-.5 0-.1 0-.2.1-.2 13.6-13.3 4.7-26.5-1.5-32.9l-4.4-3.8c-2.6 8.7-8.5 18.2-20.1 26.9-6.4 4.1-10.6 11.4-10.6 19.7 0 8.2 4.1 15.4 10.4 19.8l.4-.6z"/>
        <path fill="#FFE0B2"
              d="M67.1 110.9h-2 2zM38.8 98.1c-.4.3 2.1 5.6 2.5 5.9 1.8 1.8 4.1 2.2 6.3 3.5 4.8 2.7 10.2 3.6 15.6 4.2 5.7.6 11.5-.5 16.8-2.6 2.5-1 4.8-2.3 7-3.8 1.2-.8 2.2-1.6 3.3-2.6.4-.3 2.4-3.6 2.7-3.3-4-3.3-8-6.9-10.4-11.6-2.2-4.2-2.6-9.1-.5-13.4 1.7-3.3 4.5-5.6 7.3-7.9 2.2-1.8 4.3-3.6 6.5-5.5l4.7-3.9c1-.8 2.1-1.6 2.8-2.7 1.5-2 1.9-4.6 1.2-7-1.4-4.8-7.1-7.2-11.5-4.9-1 .5-1.9 1.3-2.6 2.2l-.5.7-1.1.1c-.8.1-1.6.2-2.4.2-2.6.2-5.3.3-7.9.1-6.8-.3-13.5-2.1-19.1-6-3.6-2.4-6.3-5.6-8.9-9-.5.9-.8 1.9-1.1 2.8-.5 1.4-1 2.7-1.6 4-1.7 3.3-4.5 5.8-8.2 6.9-.5.2-1.1.3-1.7.4-.3-.5-.7-.9-1.1-1.3-.9-.6-2.1-1.3-3.3-1.6-2.5-.7-5.2-.2-7.2 1.4-3.9 3.1-4 9.2-.1 12.5l10.5 8.9c2.4 2 4.3 4.8 5.9 7.4 2.1 3.5 3.4 7.6 3.2 11.7-.3 5.6-3.3 10.4-7.1 14.2-.1.1 13.6-13.3 0 0z"/>
        <path fill="#80DEEA"
              d="M93 99.4l-.2-.1-1.5 1.5-.5.4c-.4.4-.9.8-1.3 1.1l-.4.3c-.6.5-1.2.9-1.8 1.3l-.3.2c-.5.4-1.1.7-1.6 1l-.5.3-1.8 1-.2.1c-.7.4-1.4.7-2.1 1l-.4.2-1.8.7-.5.2c-.8.3-1.5.5-2.3.7l-2.4.6c-.1 0-.2 0-.3.1l-2.1.4h-.2c-1.5.2-3 .3-4.5.4h2-1.9c-.6 0-1.2 0-1.9-.1l-2.7-.3-.9-.1-1.6-.3h-.1c-2.7-.6-5.2-1.4-7.6-2.4l-.3-.1c-.4-.2-.8-.4-1.2-.5l-.4-.2c-.4-.2-.7-.4-1-.5l-.5-.3-1-.6-.5-.3c-.5-.3-1-.6-1.5-1-.3-.2-.5-.4-.8-.5l-.6-.5-.8-.6-.6-.5c-.3-.2-.5-.4-.8-.7l-.5-.5-.8-.8-.4-.4c-.4-.4-.8-.8-1.1-1.3-.1.2-.2.4-.2.5-3.1.9-6 2.7-8.4 5.4l-.2.2s-.5.6-1.5 1.7c-.9 1.1-2.2 2.6-3.7 4.5-3.1 3.9-7.2 9.5-11.7 16.6-.1.2-.2.4-.4.6H118c-2.7-5.4-5.1-9.8-7.1-13.1-1.3-2.2-2.3-3.9-3.1-5.1-.9-1.3-1.3-2-1.3-2l-.2-.3c-.6-.9-1.2-1.7-1.9-2.4-3.3-3.3-7.4-5.2-11.4-5.5z"/>
        <circle fill="#444" cx="78.9" cy="51.3" r="2"/>
        <circle fill="#444" cx="53.2" cy="51.3" r="2"/>
    </svg>
    <svg viewBox="0 0 128 128" height="100%" width="100%" pointer-events="none" display="block" id="svg-7"  >
        <path fill="#FFCC80" d="M41.6 123.8s0 .1-.1.1l.3-.4c-.1.2-.1.2-.2.3z"/>
        <path fill="#80D8FF" d="M0 0h128v128H0z"/>
        <path fill="#5D4037"
              d="M29.3 123.1c4.1-6.9 7.8-12.4 10.5-16.2 1.4-1.9 2.5-3.4 3.3-4.4l1.7-2s0-.1.1-.1l.3-.3C49 95.4 51.9 91 54.1 87c9.5-17.8 6.1-29.3-.3-35.9-1.6-1.6-3.2-2.9-4.7-4-.9-.6-1.7-1.1-2.4-1.6-1.8-1-3.1-1.6-3.3-1.7-1.3-1.2-2.2-2.9-2.5-4.9-.5-4.3 2.2-6.2 6.1-6.8 1-.1 2-.1 2.9.2 9.6-1.8 11.9-8 13.3-10.6 4 5.7 13.9 9.8 38 6.1C97.1 14.3 84.5 5.4 71 7.4c-4.4.7-8.3 2.4-11.8 4.9l-.1.1c-1.1.8-2.1 1.6-3 2.6l-35 30C12.9 49.8 7.3 58.8 7.3 69.1c0 2.7.4 5.3 1.1 7.8.3 4.9-.1 11.7-2.9 18.6-.2.5-.5 1-.7 1.6-1.2 3.2-1.9 6.6-1.9 10.2 0 8.2 3.5 15.6 9.1 20.7h14.5c1-1.7 1.9-3.4 2.8-4.9zm20.5-90.8z"/>
        <path fill="#FFCC80"
              d="M63.1 19.8c-1.4 2.6-5.7 8.8-15.3 10.6-.9-.3-1.9-.3-2.9-.2-3.9.6-6.7 4.5-6.1 8.8.3 2 1.2 3.7 2.5 4.9.2.1 1.5.6 3.3 1.7.7.4 1.6 1 2.4 1.6 1.5 1.1 3.1 2.4 4.7 4 6.4 6.6 11.8 18.1 2.3 35.9 0 0 7.3 15.5 23.2 16.9 6.1.5 13.3-5.6 22.1-8.8-.1-.7-.3-1.4-.5-2.1-.3-1.3-3.9-21.5-4.1-28.2-.2-7.4.7-11.9 1.9-14.8h8.8L103 39.7c-.2-2.4-.4-4.7-.7-6.7-.2-1.8-.6-3.5-1.1-5.2-24.2 3.7-34-2.3-38.1-8zm22.3 19.6c0-.9.7-1.6 1.6-1.6.9 0 1.6.7 1.6 1.6 0 .9-.7 1.6-1.6 1.6-.9 0-1.6-.7-1.6-1.6zm-35.6-7.1zm-4.9 68.1s0 .1-.1.1l.3-.4-.2.3z"/>
        <circle fill="#444" cx="86.9" cy="39.4" r="2"/>
        <path fill="#00BFA5"
              d="M77.2 98.5C61.3 97.2 54.1 87 54.1 87c-2.2 4-5.1 8.4-8.9 13.1l-.3.4c-.5.7-1.1 1.3-1.7 2-.8 1-2 2.5-3.3 4.4-2.8 3.8-6.5 9.2-10.5 16.2-.9 1.6-1.8 3.2-2.8 4.9h80.8l-.3-1c-2.6-10.3-5.4-21.4-7.7-31.9-8.8 3.1-16.1 3.9-22.2 3.4z"/>
    </svg>
    <svg viewBox="0 0 128 128" height="100%" width="100%" pointer-events="none" display="block" id="svg-8"  >
        <path fill="#FFCC80" d="M41.6 123.8s.1-.2.2-.3c-.1.2-.1.2-.2.3z"/>
        <path fill="#B388FF" d="M0 0h128v128H0z"/>
        <path d="M64.1 34.5c-.1.1-.2.2-.3.2.1-.1.2-.2.3-.2zm.9-.7c-.1.1-.2.1-.2.2l.2-.2zm-1.9 1.3c-.1.1-.2.2-.4.2.2 0 .3-.1.4-.2zm-5.4 2.6l-.5.2c.2-.1.4-.2.5-.2zm2.8-1.1l-.2.1s.1-.1.2-.1zm-1.3.5l-.4.2c.1 0 .2-.1.4-.2zm8.8-6.3l-.2.3c.1-.1.2-.2.2-.3zm-1.9 2.1l-.3.2.3-.2zm1.4-1.4l-.3.3c.1-.2.2-.3.3-.3zm-.7.6l-.3.3c.2-.1.3-.2.3-.3zM62 35.8l-.3.2.3-.2zm5 47l-.3 1.6.3-1.6zM56.2 38.1l-.5.1c.1 0 .3 0 .5-.1zm10.4 46.5c-.1.5-.2 1.1-.4 1.6.2-.5.3-1 .4-1.6zm.6-3.6l-.2 1.6c.1-.5.1-1 .2-1.6zm-5.6-20.8c.1.1.2.3.4.4l-.4-.4zm7.5-30.9l-.6.9c.5-.7.9-1.3 1.2-1.8-.1.2-.3.5-.5.7 0 .1 0 .2-.1.2zM67.2 81c1-10.6-2.4-17.3-5.2-20.4 2.7 3.1 6.2 9.8 5.2 20.4zm-1 5.5c-.1.6-.3 1.1-.5 1.7.2-.6.4-1.2.5-1.7zm-5.6-27.4l.2.2c-.1 0-.2-.1-.2-.2zm-.3-.2s.1.1.2.1c-.1 0-.1 0-.2-.1zm-.2-.1zm-.1-.1zm1.7 38.2c-.1-.1-.2-.2-.4-.3l.1.1.3.2zm-.5-37.1l.3.3-.3-.3zm-.3-.4l.3.3c-.2-.1-.2-.2-.3-.3z"
              fill="none"/>
        <path fill="#2A56C6" d="M98.8 94.8v.2-.2z"/>
        <path fill="#FFE0B2" d="M2.8 109.6L0 110.8V128h15.5L2.8 109.6z"/>
        <path fill="#DD2C00"
              d="M91.9 128h5.6c-3.8-12-4.4-16-4.9-20.1-.1-.5-.5-2.4-.5-2.9-2.6.7-5.2 1.1-8 1.2-8.7-.2-16.5-3.8-22.3-9.3l-.2-.2-.1-.1c-2.9.2-7.6.2-10.8.6-4.6.6-9.6 1.3-15 2.4-4.7.9-11.2 2.7-33.3 9.3l.5.7L15.5 128h70.2"/>
        <path fill="#FFEB3B"
              d="M66.2 86.5c0-.1 0-.1.1-.2.1-.6.3-1.1.4-1.6v-.2l.3-1.6v-.1l.2-1.6c1-10.6-2.4-17.3-5.2-20.4-.1-.1-.2-.3-.4-.4l-.1-.1-.3-.3-.1-.1-.3-.3-.1-.1-.2-.2-.1-.1c-.1-.1-.1-.1-.2-.1 0 0-.1 0-.1-.1l-.1-.1s-.1 0-.1-.1c-1.6-1.7-3.3-3-4.9-4.1-.9-.6-1.7-1.2-2.5-1.6-1.8-1.1-3.2-1.6-3.4-1.7-1.3-1.2-2.3-3-2.6-5-.6-4.4.3-6.4 4.3-7.1 1-.2 2-.1 3 .2l.1-.7c.6-.1 1.1-.2 1.6-.4l.5-.1 1.1-.3.5-.2 1-.3.4-.2c.4-.1.7-.3 1.1-.5l.2-.1 1.2-.6.3-.2c.3-.1.5-.3.8-.5.1-.1.3-.2.4-.2.2-.1.4-.3.7-.4.1-.1.2-.2.3-.2l.7-.5c.1-.1.2-.1.2-.2.3-.2.5-.4.8-.7.1-.1.2-.1.2-.2l.5-.5.3-.3.4-.4.3-.3.3-.4c.1-.1.2-.2.2-.3.2-.2.3-.4.4-.6l.6-.9.1-.2c.2-.3.3-.5.5-.7 4.2 5.9 14.5 10.4 39.3 6.7-4.2-14-17.3-23.5-31.3-21.4-5.3.8-10.1 3.2-14 6.6l-.2.2c-.5.4-1 .9-1.4 1.4-5.3 4.8-23.3 19.8-52.2 26.5-3.9 0-7.4 1.6-9.9 4.2v19.3c.3.3.6.6.9.8l-.3.9S30.9 96.4 64 90.3l1.6-1.8c0-.1 0-.1.1-.2.2-.7.4-1.3.5-1.8z"/>
        <path fill="#FFE0B2"
              d="M84 106.2c2.8-.1 5.4-.5 8-1.2l.8-3.8c4.3-19.3 9.7-37.4 15-52.9h6.9l-4.8-8.2c-.2-1.9-.6-3.6-1.2-5.3-24.8 3.7-35-2.5-39.1-8.4-.3.5-.7 1.1-1.2 1.8l-.4.6-.2.3-.3.4-.3.3-.4.4-.3.3-.5.5s-.1 0-.2.1c-.3.2-.5.4-.8.7-.1.1-.2.1-.2.2-.2.2-.4.3-.7.5-.1.1-.2.2-.3.2-.2.1-.4.3-.7.4-.1.1-.2.2-.4.2l-.8.5-.3.2-1.2.6-.2.1-1.1.5-.4.2c-.3.1-.6.2-1 .3l-.5.2c-.3.1-.7.2-1.1.3l-.5.1-1.6.4c-.1.2-.1.5-.1.7-.9-.3-1.9-.4-3-.2-4.1.6-6.9 4.7-6.3 9.1.3 2 1.2 3.8 2.6 5 .3.1 1.6.7 3.4 1.7.8.4 1.6 1 2.5 1.6 1.5 1.1 3.2 2.5 4.9 4.1l.1.1.1.1.1.1s.1.1.2.1c0 0 .1 0 .1.1l.2.2.1.1.3.3.1.1.3.3.1.1s.2.3.4.4c2.7 3.1 7.2 9.8 6.2 20.4l-.2 1.6v.1l-.3 1.6v.2c-.1.5-.2 1.1-.4 1.6 0 .1 0 .1-.1.2-.1.6-.3 1.1-.5 1.7 0 .1 0 .1-.1.2-.8 2.6-1.8 5.3-3.3 8.3.1.1.2.2.4.3 5.7 5.6 13.5 9.1 22.2 9.3z"/>
        <path fill="#DD2C00" d="M85.6 128h5.1"/>
        <circle fill="#444" cx="95.8" cy="46.5" r="2"/>
    </svg>
    <svg viewBox="0 0 128 128" height="100%" width="100%" pointer-events="none" display="block" id="svg-9"  >
        <path fill="#FFCC80" d="M41.6 123.8s0 .1-.1.1l.3-.4c-.1.2-.1.2-.2.3z"/>
        <path fill="#FFFF8D" d="M0 0h128v128H0z"/>
        <path fill="#C2C2C2"
              d="M83.2 26.6c.1-.9.2-1.8.2-2.7C83.4 13.5 75 5 64.6 5s-18.8 8.4-18.8 18.8c0 1.4.2 2.7.4 4 5.4-4 12.2-6.4 19.4-6.4 6.5.1 12.5 2 17.6 5.2z"/>
        <path fill="#848484"
              d="M41.4 58.4c9.6-1.9 10.3-10.7 11.7-13.2 4.2 5.4 12.4 16.6 36.8 13.5 1.5-2.5 4.4-6 7.4-5.6.3 0 .6.1 1 .2C98 42 92 32.1 83.1 26.5 78 23.3 72 21.4 65.6 21.4c-7.3 0-14 2.4-19.4 6.4-7.9 5.9-13.1 15.2-13.3 25.7.4-.1.9 1.7 1.4 1.7 2.8-.4 5.6 1 7.1 3.2z"/>
        <path fill="#FF5722"
              d="M109.6 121.5c-1.2-2-2.2-3.6-2.9-4.8l-1.2-1.8-.2-.3c-.5-.8-1.1-1.6-1.8-2.3-3.1-3.3-6.9-5.1-10.8-5.3 0 0 .1 0 .1.1l-.2-.1c-3.4 3.7-7.8 6.6-12.7 8.5V128h33.4c-1.4-2.5-2.6-4.7-3.7-6.5zM42 106l-.2.5c-2.9.8-5.6 2.5-7.8 5.1l-.2.2s-.5.6-1.4 1.6c-.9 1-2 2.4-3.5 4.2-2.1 2.6-4.7 6.1-7.5 10.4h28v-15.7c-2.8-1.7-5.3-3.8-7.4-6.3z"/>
        <path fill="#E0F7FA" d="M67.7 117.7c-6.8-.2-13.1-2.1-18.3-5.4V128h30.5v-12.6c-3.8 1.4-7.9 2.2-12.2 2.3z"/>
        <path fill="#FFE0B2"
              d="M42 106c2.1 2.4 4.6 4.5 7.4 6.3 5.2 3.3 11.5 5.3 18.3 5.4 4.3-.1 8.4-.9 12.1-2.3 5-1.9 9.3-4.8 12.7-8.5l.2.1s-.1 0-.1-.1c-15.7-12.3-12-21.7-7.8-26.6 1.3-1.1 2.6-2.3 4.1-3.6l12.2-10.3c1.4-1.2 2.4-2.8 2.7-4.8.5-3.8-1.9-7.3-5.4-8.2-.3-.1-.6-.2-1-.2-3.1-.4-5.9 1.1-7.4 3.6-24.4 3.1-32.7-8.1-36.8-13.5-1.5 2.4-2.1 11.3-11.7 13.2-1.6-2.3-4.3-3.6-7.2-3.2l-1.4.3c-3.4 1.1-5.5 4.5-5 8.1.3 1.9 1.3 3.6 2.6 4.7l10.2 8.7c5.8 6 14.1 18.3 1.4 30.7-.1.1-.1.2-.1.2zm37.6-45.3c.8 0 1.5.7 1.5 1.5s-.7 1.5-1.5 1.5-1.5-.7-1.5-1.5c-.1-.9.6-1.5 1.5-1.5zm-24 0c.8 0 1.5.7 1.5 1.5s-.7 1.5-1.5 1.5-1.5-.7-1.5-1.5c-.1-.9.6-1.5 1.5-1.5z"/>
        <circle fill="#444" cx="79.6" cy="62.2" r="2"/>
        <circle fill="#444" cx="55.6" cy="62.2" r="2"/>
    </svg>
      <svg xmlns="http://www.w3.org/2000/svg" width="2500" height="2500" viewBox="0 0 192.756 192.756" id="svg-100">
        <g fill-rule="evenodd" clip-rule="evenodd"><path fill="#fff" d="M0 0h192.756v192.756H0V0z"/><path d="M8.14 125.398h13.065c5.337 0 9.201 2.76 9.201 8.281 0 4.232-1.84 6.439-4.969 7.729v.184c3.681.736 5.705 3.129 5.705 7.178 0 7.912-6.072 9.568-11.041 9.568H8.14v-32.94zm7.545 26.684h2.208c2.76 0 5.705-.553 5.705-3.865 0-3.496-2.944-3.865-5.521-3.865h-2.393v7.73h.001zm0-13.619h2.208c2.392 0 4.968-.734 4.968-3.496 0-3.127-2.392-3.312-4.968-3.312h-2.208v6.808zM48.44 140.488c-.92-.184-1.656-.184-2.577-.184-3.312 0-5.152 2.76-5.152 7.545v10.488h-7.36V133.68h6.625v4.6c1.288-3.129 3.128-5.152 6.257-5.152.92 0 1.84.184 2.576.367l-.369 6.993zM62.794 158.338v-3.312c-1.289 2.576-3.68 3.865-6.44 3.865-4.232 0-7.913-2.393-7.913-7.73 0-7.543 6.993-8.465 10.857-8.465 1.288 0 2.576.186 3.496.369-.184-3.312-2.208-4.232-4.968-4.232-2.208 0-4.601.551-6.625 1.84l-.184-5.705c2.576-1.287 5.336-1.84 8.465-1.84 5.336 0 10.121 2.76 10.121 10.121v9.201c0 2.025 0 3.865.368 5.889h-7.177v-.001zm-4.601-5.336c2.024 0 3.681-.92 4.601-2.576v-3.129c-.92-.184-2.024-.184-3.128-.184-2.393 0-4.417.92-4.417 3.312.001 1.657 1.289 2.577 2.944 2.577zM95.366 158.338h-6.625v-3.68c-1.473 2.576-4.233 4.232-7.361 4.232-6.257 0-9.569-6.072-9.569-13.25 0-6.072 3.128-12.514 9.018-12.514 2.944 0 5.336.92 7.177 3.68h.184v-11.408h7.177v32.94h-.001zm-11.593-6.072c2.392 0 4.416-2.576 4.416-6.256 0-3.682-1.84-6.258-4.416-6.258-2.944 0-4.417 2.76-4.417 6.072 0 3.865 1.656 6.442 4.417 6.442zM105.303 148.586c.553 3.311 2.762 4.6 6.258 4.6 2.023 0 4.232-.553 6.439-1.84v5.889c-2.393 1.104-4.969 1.656-7.729 1.656-6.992 0-12.33-4.785-12.33-12.881 0-8.098 4.785-12.883 11.41-12.883 7.729 0 10.674 6.441 10.674 13.803v1.656h-14.722zm8.097-4.969c0-2.762-1.104-5.154-4.049-5.154-2.576 0-3.863 2.393-4.049 5.154h8.098zM122.418 151.529c1.656.736 4.232 1.656 6.809 1.656 1.471 0 2.943-.367 2.943-2.025 0-4.047-10.305-1.104-10.305-9.936 0-5.705 4.785-8.098 8.832-8.098 2.576 0 5.154.367 7.545 1.473l-.551 5.889c-1.656-1.105-3.865-1.656-5.705-1.656-1.656 0-3.312.367-3.312 1.656 0 3.863 10.674.92 10.674 10.121 0 6.625-4.969 8.281-9.754 8.281-3.312 0-5.52-.369-7.729-1.289l.553-6.072zM158.484 140.672c-1.287-.92-2.576-1.289-4.416-1.289-3.129 0-5.52 2.578-5.52 6.811 0 3.863 2.76 6.439 6.072 6.439 1.473 0 3.129-.367 4.416-1.104l.184 6.256c-1.84.736-4.047 1.105-5.889 1.105-6.992 0-12.328-4.785-12.328-12.881 0-8.098 5.336-12.883 12.328-12.883 2.209 0 4.049.367 5.705 1.473l-.552 6.073zM159.957 146.01c0-8.098 5.338-12.883 12.33-12.883s12.33 4.785 12.33 12.883c0 8.096-5.338 12.881-12.33 12.881s-12.33-4.786-12.33-12.881zm17.115 0c0-3.682-1.473-6.811-4.785-6.811s-4.785 3.129-4.785 6.811c0 3.68 1.473 6.809 4.785 6.809s4.785-3.13 4.785-6.809z" fill="#59595b"/><path fill="#fff" d="M54.513 26.763h82.258v82.073H54.513V26.763z"/><path d="M102.176 75.712h-6.81v33.124h-4.233V86.57h-2.944v22.266H54.513V26.763h82.258v82.073h-34.596V75.712h.001zM89.662 48.477c-4.233 0-8.097.368-11.962.92 5.153-6.257 12.881-10.489 21.714-10.489 6.994 0 13.434 2.761 18.402 7.177-5.152-6.257-12.881-10.121-21.347-10.121-10.489 0-19.69 5.888-24.475 14.721-5.153 1.289-9.569 3.129-13.25 5.337 3.681-1.656 7.913-2.944 12.33-3.864-1.84 3.864-2.76 8.281-2.76 12.881 0 8.833 3.68 16.746 9.753 22.083-4.232-5.152-6.993-11.777-6.993-18.954 0-6.257 2.024-12.146 5.152-16.746a71.936 71.936 0 0 1 9.018-.552c22.634 0 40.853 9.569 40.853 21.531 0 5.521-3.68 10.489-9.938 14.17 8.834-3.865 14.354-9.938 14.354-16.378.001-11.963-18.216-21.716-40.851-21.716z" fill="#cc203c"/></g></svg>
    </svg>
    </defs>
</svg>
